<?xml version="1.0" standalone="no"?><!DOCTYPE svg PUBLIC "-//W3C//DTD SVG 1.1//EN" "http://www.w3.org/Graphics/SVG/1.1/DTD/svg11.dtd"><svg t="1701338170759" class="icon" viewBox="0 0 1024 1024" version="1.1" xmlns="http://www.w3.org/2000/svg" p-id="1563" xmlns:xlink="http://www.w3.org/1999/xlink" width="200" height="200"><path d="M512 512m-512 0a512 512 0 1 0 1024 0 512 512 0 1 0-1024 0Z" fill="#F38654" fill-opacity=".096" p-id="1564"></path><path d="M605.980444 273.066667c111.547733 0 183.000178 112.071111 183.000178 237.750044 0 125.678933-69.723022 214.994489-201.955555 227.555556-32.267378 3.072-61.166933-2.116267-86.402845-13.5168 89.565867-18.090667 149.822578-69.905067 188.598045-142.859378 45.420089-85.447111 71.953067-279.1424-117.509689-305.857422A196.516978 196.516978 0 0 1 605.980444 273.066667z" fill="#F38654" fill-opacity=".1" p-id="1565"></path><path d="M260.551111 574.941867a273.157689 273.157689 0 0 0 531.706311-26.464711c2.776178-15.701333 4.187022-31.698489 4.187022-47.854934 0-150.801067-122.2656-273.066667-273.066666-273.066666a272.611556 272.611556 0 0 0-218.180267 108.862577 22.755556 22.755556 0 1 0 36.340622 27.374934A227.1232 227.1232 0 0 1 523.377778 273.066667c125.678933 0 227.555556 101.876622 227.555555 227.555555 0 13.5168-1.183289 26.851556-3.4816 39.936a227.623822 227.623822 0 0 1-443.096177 22.027378 22.755556 22.755556 0 0 0-43.804445 12.356267z" fill="#F38654" p-id="1566"></path><path d="M540.444444 432.355556a62.577778 62.577778 0 1 0-125.155555 0 17.066667 17.066667 0 1 0 34.133333 0 28.444444 28.444444 0 0 1 56.888889 0 17.066667 17.066667 0 1 0 34.133333 0zM722.488889 432.355556a62.577778 62.577778 0 1 0-125.155556 0 17.066667 17.066667 0 1 0 34.133334 0 28.444444 28.444444 0 0 1 56.888889 0 17.066667 17.066667 0 1 0 34.133333 0zM557.511111 674.065067c66.400711 0 119.466667-51.040711 119.466667-116.622223 0-26.669511-9.489067-43.713422-29.4912-49.265777-12.447289-3.458844-18.659556-2.844444-51.268267 2.594133-16.702578 2.776178-27.329422 4.004978-38.7072 4.004978s-22.004622-1.2288-38.7072-4.004978c-32.608711-5.438578-38.820978-6.052978-51.268267-2.594133-20.002133 5.552356-29.4912 22.596267-29.4912 49.265777 0 65.581511 53.065956 116.622222 119.466667 116.622223z m0-34.133334c-47.832178 0-85.333333-36.067556-85.333333-82.488889 0-12.856889 1.501867-15.5648 4.482844-16.384 5.233778-1.456356 11.150222-0.841956 36.545422 3.390578 18.409244 3.049244 30.606222 4.460089 44.305067 4.460089 13.698844 0 25.895822-1.410844 44.305067-4.460089 25.3952-4.232533 31.3344-4.846933 36.545422-3.413333 2.958222 0.841956 4.482844 3.549867 4.482844 16.384 0 46.444089-37.501156 82.511644-85.333333 82.511644zM361.426489 405.959111a70.064356 70.064356 0 1 1-131.208533 0l22.983111-61.303467a45.511111 45.511111 0 0 1 85.242311 0l22.983111 61.303467zM295.822222 360.630044l-22.983111 61.303467a24.553244 24.553244 0 1 0 45.966222 0L295.822222 360.630044z" fill="#F38654" p-id="1567"></path><path d="M250.311111 523.377778m-22.755555 0a22.755556 22.755556 0 1 0 45.511111 0 22.755556 22.755556 0 1 0-45.511111 0Z" fill="#F38654" p-id="1568"></path></svg>